<svg width="115" height="24" viewBox="0 0 115 24" fill="none" xmlns="http://www.w3.org/2000/svg">
<path d="M7.19273 17.4001H7.9813C9.41507 17.4001 10.4824 16.7922 11.1834 15.5761C11.8843 14.3441 12.2348 12.2721 12.2348 9.36014C12.2348 6.44815 11.8764 4.43215 11.1595 3.31214C10.4585 2.17615 9.4549 1.60814 8.14857 1.60814H7.19273V17.4001ZM8.45922 17.7841H0.788574V17.4001H2.31792V1.60814H0.788574V1.20014H8.22026C11.4542 1.20014 13.812 1.92814 15.2935 3.38414C16.791 4.82414 17.5397 6.79214 17.5397 9.28814C17.5397 11.7361 16.8547 13.7281 15.4847 15.2641C14.7837 16.0641 13.8358 16.6881 12.641 17.1361C11.4462 17.5681 10.0523 17.7841 8.45922 17.7841ZM20.2333 7.12814H18.5367V6.74414H19.9704C21.7069 6.74414 23.2999 6.59215 24.7496 6.28814V17.4001H26.2312V17.7841H18.7517V17.4001H20.2333V7.12814ZM22.4795 5.28014C21.8582 5.28014 21.3246 5.06414 20.8785 4.63214C20.4483 4.18414 20.2333 3.64814 20.2333 3.02414C20.2333 2.38414 20.4483 1.84814 20.8785 1.41614C21.3246 0.968142 21.8661 0.744141 22.5034 0.744141C23.1407 0.744141 23.6743 0.968142 24.1045 1.41614C24.5346 1.84814 24.7496 2.38414 24.7496 3.02414C24.7496 3.64814 24.5267 4.18414 24.0806 4.63214C23.6504 5.06414 23.1168 5.28014 22.4795 5.28014ZM36.6907 7.58414C36.4995 7.39214 36.1569 7.21615 35.6631 7.05614C35.1852 6.88015 34.5957 6.79214 33.8948 6.79214C33.1938 6.79214 32.6124 6.95215 32.1504 7.27214C31.6883 7.57615 31.4574 7.98415 31.4574 8.49614C31.4574 8.99215 31.6883 9.43214 32.1504 9.81614C32.6124 10.1841 33.1699 10.5201 33.8231 10.8241C34.4763 11.1121 35.1294 11.4321 35.7826 11.7841C36.4517 12.1201 37.0172 12.5521 37.4793 13.0801C37.9412 13.6081 38.1722 14.2081 38.1722 14.8801C38.1722 15.9042 37.6465 16.7202 36.5951 17.3281C35.5595 17.9361 33.9983 18.2401 31.9115 18.2401C30.9714 18.2401 30.0156 18.0721 29.0439 17.7361C28.55 17.5602 28.1438 17.2881 27.8252 16.9201C27.5225 16.5361 27.3712 16.0641 27.3712 15.5041C27.3712 14.9441 27.5543 14.4641 27.9208 14.0641C28.2872 13.6481 28.7572 13.4401 29.3307 13.4401C29.9042 13.4401 30.3661 13.6081 30.7167 13.9441C31.067 14.2641 31.2424 14.6801 31.2424 15.1921C31.2424 15.7041 31.0909 16.1202 30.7883 16.4401C30.5016 16.7442 30.1431 16.8961 29.713 16.8961C29.2987 16.8961 28.9403 16.7442 28.6377 16.4401C28.6057 16.4082 28.5818 16.3842 28.566 16.3681C28.55 16.3362 28.534 16.3122 28.5182 16.2961C28.5022 16.2801 28.4862 16.2642 28.4704 16.2481C28.4066 16.2162 28.3509 16.2001 28.3031 16.2001C28.1756 16.2001 28.112 16.2721 28.112 16.4161C28.112 16.5601 28.2315 16.7361 28.4704 16.9441C28.7252 17.1522 29.1395 17.3442 29.713 17.5201C30.2865 17.6961 30.9317 17.7841 31.6486 17.7841C32.3813 17.7841 33.0026 17.6641 33.5125 17.4241C34.0382 17.1681 34.3011 16.8081 34.3011 16.3441C34.3011 15.8641 34.07 15.4242 33.6081 15.0241C33.146 14.6081 32.5805 14.2321 31.9115 13.8961C31.2582 13.5441 30.5972 13.1841 29.9281 12.8161C29.259 12.4481 28.6934 12.0081 28.2315 11.4961C27.7694 10.9681 27.5385 10.4001 27.5385 9.79214C27.5385 8.78414 28.0004 7.95214 28.9244 7.29614C29.8643 6.64015 31.322 6.31214 33.2974 6.31214C34.763 6.31214 35.8622 6.56014 36.5951 7.05614C37.3278 7.53614 37.6943 8.17615 37.6943 8.97614C37.6943 9.56815 37.5111 10.0721 37.1447 10.4881C36.7782 10.8881 36.3083 11.0881 35.7348 11.0881C35.1772 11.0881 34.7231 10.9201 34.3728 10.5841C34.0222 10.2481 33.847 9.83215 33.847 9.33614C33.847 8.82415 33.9904 8.40814 34.2772 8.08814C34.5639 7.76815 34.9224 7.60814 35.3525 7.60814C35.7985 7.60814 36.1172 7.72814 36.3083 7.96814C36.5153 8.19214 36.6668 8.30414 36.7624 8.30414C36.9057 8.30414 36.9774 8.23214 36.9774 8.08814C36.9774 7.94414 36.8818 7.77614 36.6907 7.58414ZM46.668 17.5681C47.4486 17.5681 48.1257 17.2561 48.6992 16.6321C49.2727 16.0081 49.647 15.2322 49.8223 14.3041L49.8701 14.0641H50.3003C50.1569 15.2961 49.679 16.3041 48.8665 17.0881C48.054 17.8561 47.0504 18.2401 45.8556 18.2401C43.9119 18.2401 42.3826 17.7201 41.2675 16.6801C40.1523 15.6402 39.5948 14.1761 39.5948 12.2881C39.5948 10.3841 40.1602 8.91214 41.2914 7.87214C42.4384 6.81614 43.9757 6.28814 45.9032 6.28814C47.2574 6.28814 48.293 6.62414 49.0099 7.29614C49.7426 7.96814 50.1091 8.67214 50.1091 9.40814C50.1091 10.1441 49.9179 10.7121 49.5356 11.1121C49.1691 11.5121 48.6992 11.7121 48.1257 11.7121C47.5522 11.7121 47.0822 11.5361 46.7158 11.1841C46.3653 10.8321 46.1901 10.4081 46.1901 9.91214C46.1901 9.40015 46.3335 8.98414 46.6203 8.66414C46.9228 8.32814 47.3132 8.16014 47.7912 8.16014C48.4603 8.16014 48.8983 8.48014 49.1055 9.12014C49.1691 9.32815 49.2567 9.43214 49.3683 9.43214C49.5117 9.43214 49.5834 9.35215 49.5834 9.19214C49.5834 9.14414 49.5674 9.05614 49.5356 8.92814C49.0895 7.61614 48.1415 6.96014 46.6919 6.96014C46.2618 6.96014 45.8953 7.08014 45.5927 7.32014C45.29 7.54414 45.0589 7.80814 44.8997 8.11214C44.7564 8.41615 44.6448 8.83214 44.5652 9.36014C44.4696 10.0161 44.4218 10.8321 44.4218 11.8081C44.4218 12.7841 44.4297 13.5201 44.4457 14.0161C44.4775 14.5121 44.5332 15.0081 44.613 15.5041C44.6926 16.0002 44.8121 16.3842 44.9714 16.6561C45.3218 17.2641 45.8874 17.5681 46.668 17.5681ZM57.0912 8.23214H57.2107C57.4655 7.65614 57.8239 7.19215 58.286 6.84014C58.748 6.47215 59.3055 6.28814 59.9588 6.28814C60.6279 6.28814 61.1933 6.51214 61.6554 6.96014C62.1333 7.39214 62.3723 7.92014 62.3723 8.54414C62.3723 9.16814 62.189 9.68815 61.8227 10.1041C61.4562 10.5201 60.9863 10.7281 60.4128 10.7281C59.8393 10.7281 59.3693 10.5601 59.0029 10.2241C58.6524 9.88814 58.4772 9.47215 58.4772 8.97614C58.4772 8.46415 58.6206 8.04814 58.9073 7.72814C59.2099 7.39214 59.5843 7.22414 60.0305 7.22414C60.4764 7.22414 60.8349 7.38415 61.1058 7.70414C61.2332 7.94414 61.3606 8.06414 61.4881 8.06414C61.6315 8.06414 61.7032 7.99214 61.7032 7.84814C61.7032 7.75214 61.6554 7.63214 61.5598 7.48814C61.1775 6.97615 60.6358 6.72014 59.9349 6.72014C57.9754 6.72014 56.9956 8.68814 56.9956 12.6241V17.4001H58.7879V17.7841H51.0933V17.4001H52.5749V7.12814H50.8782V6.74414H52.312C54.0484 6.74414 55.6415 6.59215 57.0912 6.28814V8.23214ZM64.0584 7.12814H62.3618V6.74414H63.7956C65.5319 6.74414 67.1251 6.59215 68.5748 6.28814V17.4001H70.0564V17.7841H62.5769V17.4001H64.0584V7.12814ZM66.3047 5.28014C65.6834 5.28014 65.1496 5.06414 64.7036 4.63214C64.2735 4.18414 64.0584 3.64814 64.0584 3.02414C64.0584 2.38414 64.2735 1.84814 64.7036 1.41614C65.1496 0.968142 65.6913 0.744141 66.3286 0.744141C66.9657 0.744141 67.4995 0.968142 67.9296 1.41614C68.3597 1.84814 68.5748 2.38414 68.5748 3.02414C68.5748 3.64814 68.3517 4.18414 67.9057 4.63214C67.4756 5.06414 66.9418 5.28014 66.3047 5.28014ZM76.6445 16.5121V22.5361H78.4367V22.9201H70.6466V22.5361H72.1282V7.12814H70.4315V6.74414H71.8653C73.6018 6.74414 75.1948 6.59215 76.6445 6.28814V8.40014H76.764C77.0667 7.63214 77.4809 7.08814 78.0066 6.76814C78.5483 6.44815 79.2492 6.28814 80.1095 6.28814C81.607 6.28814 82.6982 6.84014 83.3832 7.94414C84.0841 9.04814 84.4346 10.4721 84.4346 12.2161C84.4346 13.9601 84.0363 15.4002 83.2398 16.5361C82.4592 17.6562 81.3202 18.2161 79.8227 18.2161C78.3411 18.2161 77.3215 17.6481 76.764 16.5121H76.6445ZM76.5489 12.2401V12.8881C76.5489 14.2961 76.7322 15.3921 77.0985 16.1761C77.4649 16.9441 77.8871 17.3281 78.365 17.3281C79.1935 17.3281 79.6076 15.6321 79.6076 12.2401C79.6076 10.5441 79.52 9.31214 79.3448 8.54414C79.1854 7.76014 78.8589 7.36814 78.365 7.36814C77.7915 7.36814 77.3454 7.87214 77.0269 8.88014C76.7083 9.88814 76.5489 11.0081 76.5489 12.2401Z" fill="#1D1D1D"/>
<path d="M92.0536 16.8722C92.6589 16.8722 93.0492 16.0723 93.2245 14.4722L93.6546 14.5202C93.5113 15.7042 93.1767 16.6243 92.651 17.2802C92.1253 17.9203 91.3446 18.2402 90.3092 18.2402C88.1744 18.2402 87.1071 17.0722 87.1071 14.7362V7.12821H85.8645V6.74421H86.0318C86.7805 6.74421 87.7124 6.45621 88.8276 5.88021C89.3851 5.59221 89.8949 5.16021 90.357 4.58421C90.8189 4.00821 91.1375 3.35222 91.3128 2.61621H91.6235V6.74421H93.8458V7.12821H91.6235V15.8882C91.6235 16.5442 91.7668 16.8722 92.0536 16.8722ZM105.774 16.6082C104.611 17.6962 103.09 18.2402 101.21 18.2402C99.3298 18.2402 97.8085 17.6962 96.6455 16.6082C95.4825 15.5042 94.9011 14.0562 94.9011 12.2642C94.9011 10.4722 95.4825 9.03221 96.6455 7.94421C97.8085 6.84021 99.3298 6.28821 101.21 6.28821C103.09 6.28821 104.611 6.84021 105.774 7.94421C106.937 9.03221 107.518 10.4722 107.518 12.2642C107.518 14.0562 106.937 15.5042 105.774 16.6082ZM102.357 16.6082C102.58 15.7922 102.691 14.3442 102.691 12.2642C102.691 10.1842 102.58 8.74421 102.357 7.94421C102.15 7.12821 101.767 6.72021 101.21 6.72021C100.652 6.72021 100.262 7.12821 100.039 7.94421C99.8316 8.74421 99.7281 10.1842 99.7281 12.2642C99.7281 14.3442 99.8316 15.7922 100.039 16.6082C100.262 17.4082 100.652 17.8082 101.21 17.8082C101.767 17.8082 102.15 17.4082 102.357 16.6082Z" fill="#1D1D1D"/>
<path d="M111.745 18.2401C111.124 18.2401 110.59 18.0241 110.144 17.5921C109.714 17.1441 109.499 16.6081 109.499 15.9841C109.499 15.3441 109.714 14.8081 110.144 14.3761C110.59 13.9281 111.132 13.7041 111.769 13.7041C112.406 13.7041 112.94 13.9281 113.37 14.3761C113.8 14.8081 114.016 15.3441 114.016 15.9841C114.016 16.6081 113.792 17.1441 113.346 17.5921C112.916 18.0241 112.383 18.2401 111.745 18.2401Z" fill="#FF6C00"/>
</svg>
